# xmcd
#
# Track frame offsets:
#	150
#	18355
#	32756
#	55289
#	82358
#	94605
#	116934
#	131540
#	152267
#
# Disc length: 2353 seconds
#
# Revision: 11
# Processed by: cddbd v1.5.2PL0 Copyright (c) Steve Scherf et al.
# Submitted via: Jack! The Knife 20 Magnifico
#
DISCID=6f092f09
DTITLE=Saxon - Wheels Of Steel
DYEAR=1980
DGENRE=Heavy Metal
TTITLE0=Motorcycle Man
TTITLE1=Stand Up And Be Counted
TTITLE2=747 (Strangers In The Night)
TTITLE3=Wheels Of Steel
TTITLE4=Freeway Mad
TTITLE5=See The Light Shining
TTITLE6=Street Fighting Gang
TTITLE7=Suzie Hold On
TTITLE8=Machine Gun
EXTD=Pete Hinton and Saxon
EXTT0=Byford, Quinn, Oliver, Dawson, Gill
EXTT1=Byford, Quinn, Oliver, Dawson, Gill
EXTT2=Byford, Quinn, Oliver, Dawson, Gill
EXTT3=Byford, Quinn, Oliver, Dawson, Gill
EXTT4=Byford, Quinn, Oliver, Dawson, Gill
EXTT5=Byford, Quinn, Oliver, Dawson, Gill
EXTT6=Byford, Quinn, Oliver, Dawson, Gill
EXTT7=Byford, Quinn, Oliver, Dawson, Gill
EXTT8=Byford, Quinn, Oliver, Dawson, Gill
PLAYORDER=
